<svg xmlns="http://www.w3.org/2000/svg" width="1200" height="630" viewBox="0 0 1200 630">
  <rect width="1200" height="630" fill="#f4f6f2"/>
  <path d="M0 0h1200v12H0z" fill="#14633e"/>
  <g transform="translate(72 64)">
    <rect width="58" height="58" rx="9" fill="#17201b"/>
    <path d="m13 22 12-9h17l-13 9H13Zm4 12 12-9h17l-13 9H17Zm4 12 12-9h13l-13 9H21Z" fill="#6bc88e"/>
    <text x="76" y="41" fill="#17201b" font-family="Arial, sans-serif" font-size="30" font-weight="700">Standing</text>
    <text x="980" y="37" fill="#14633e" font-family="monospace" font-size="15" text-anchor="end">FLARE · FXRP</text>
  </g>
  <g transform="translate(72 188)">
    <text fill="#17201b" font-family="Arial, sans-serif" font-size="72" font-weight="600">
      <tspan x="0" y="0">Recurring XRP payments.</tspan>
      <tspan x="0" y="88">Cancelable by design.</tspan>
    </text>
    <text x="0" y="160" fill="#647068" font-family="Arial, sans-serif" font-size="24">Fund once in FXRP · Charge on schedule · Recover unused capacity</text>
  </g>
  <g transform="translate(72 500)">
    <rect width="1056" height="70" rx="6" fill="#17201b"/>
    <circle cx="34" cy="35" r="8" fill="#6bc88e"/>
    <text x="58" y="43" fill="#f4f6f2" font-family="monospace" font-size="18">Coston2 live · FTSO priced · XRPL direct mint verified</text>
  </g>
</svg>
